<?xml version="1.0" encoding="UTF-8" standalone="no"?>
<!-- Created with Inkscape (http://www.inkscape.org/) -->

<svg
   xmlns:dc="http://purl.org/dc/elements/1.1/"
   xmlns:cc="http://creativecommons.org/ns#"
   xmlns:rdf="http://www.w3.org/1999/02/22-rdf-syntax-ns#"
   xmlns:svg="http://www.w3.org/2000/svg"
   xmlns="http://www.w3.org/2000/svg"
   xmlns:sodipodi="http://sodipodi.sourceforge.net/DTD/sodipodi-0.dtd"
   xmlns:inkscape="http://www.inkscape.org/namespaces/inkscape"
   width="60"
   height="60.002651"
   id="svg3844"
   version="1.1"
   inkscape:version="0.48.4 r9939"
   sodipodi:docname="logo_concept.svg">
  <defs
     id="defs3846" />
  <sodipodi:namedview
     id="base"
     pagecolor="#ffffff"
     bordercolor="#666666"
     borderopacity="1.0"
     inkscape:pageopacity="0.0"
     inkscape:pageshadow="2"
     inkscape:zoom="9.7139183"
     inkscape:cx="30"
     inkscape:cy="30.001326"
     inkscape:document-units="px"
     inkscape:current-layer="layer1"
     showgrid="false"
     inkscape:window-width="938"
     inkscape:window-height="1028"
     inkscape:window-x="2901"
     inkscape:window-y="24"
     inkscape:window-maximized="0"
     fit-margin-top="5"
     fit-margin-left="5"
     fit-margin-right="5"
     fit-margin-bottom="5" />
  <metadata
     id="metadata3849">
    <rdf:RDF>
      <cc:Work
         rdf:about="">
        <dc:format>image/svg+xml</dc:format>
        <dc:type
           rdf:resource="http://purl.org/dc/dcmitype/StillImage" />
        <dc:title />
      </cc:Work>
    </rdf:RDF>
  </metadata>
  <g
     inkscape:label="Layer 1"
     inkscape:groupmode="layer"
     id="layer1"
     transform="translate(-72.29956,-765.95028)">
    <path
       id="path3863"
       style="font-size:400px;font-style:normal;font-variant:normal;font-weight:normal;font-stretch:normal;text-align:start;line-height:125%;letter-spacing:0px;word-spacing:0px;writing-mode:lr-tb;text-anchor:start;fill:#142735;fill-opacity:1;stroke:none;font-family:Weibei TC;-inkscape-font-specification:Weibei TC"
       d="m 109.94318,810.45806 0,-0.88727 c 0.66546,-0.39928 1.28655,-1.15346 1.73019,-2.04074 0.35491,-0.84291 0.48801,-2.04074 0.48801,-3.54911 l 0,-8.87278 -19.429121,0 0,8.87278 c 0,1.50837 0.177455,2.7062 0.532366,3.54911 0.443639,0.88728 1.020371,1.64146 1.730192,2.04074 l 0,0.88727 -6.623153,0 0,-0.88727 c 0.665458,-0.39928 1.286553,-1.15346 1.730191,-2.04074 0.354911,-0.84291 0.532367,-2.04074 0.532367,-3.54911 l 0,-16.05972 c 0,-1.50837 -0.177456,-2.7062 -0.532367,-3.54911 -0.443638,-0.88728 -1.064733,-1.64147 -1.730191,-2.08511 l 0,-0.84291 6.623153,0 0,0.84291 c -0.709821,0.44364 -1.286553,1.19783 -1.730192,2.08511 -0.354911,0.84291 -0.532366,2.04074 -0.532366,3.54911 l 0,6.28929 19.429121,0 0,-6.28929 c 0,-1.50837 -0.1331,-2.7062 -0.48801,-3.54911 -0.44364,-0.88728 -1.06473,-1.64147 -1.73019,-2.08511 l 0,-0.84291 6.79279,0 0,0.84291 c -0.70982,0.44364 -1.28655,1.19783 -1.73019,2.08511 -0.35491,0.84291 -0.53237,2.04074 -0.53237,3.54911 l 0,16.05972 c 0,1.50837 0.17746,2.7062 0.53237,3.54911 0.44364,0.88728 1.02037,1.64146 1.73019,2.04074 l 0,0.88727 -6.79279,0 m -7.9977,-23.51831 -2.751269,6.92589 1.208649,0 1.65925,-4.65172 1.49756,4.65172 1.97731,0 -2.3855,-6.92589 -1.206,0 z m -3.398003,8.55863 -0.678541,1.70695 c -0.356021,0.83072 -0.651813,1.44371 -0.869381,1.79973 -0.217568,0.33624 -0.514384,0.61165 -0.811069,0.7501 l 0,0.39759 3.066688,0 0,-0.39759 c -0.593368,-0.0198 -0.693666,-0.6713 -0.278308,-1.85803 l 0.856128,-2.39875 -1.285517,0 z m 5.542303,0 0.87998,2.59489 c 0.35602,1.00872 0.21944,1.60256 -0.41348,1.66189 l 0,0.39759 3.81679,0 0,-0.39759 c -0.43514,-0.21757 -0.73378,-0.4946 -0.91179,-0.81107 -0.23735,-0.3758 -0.47402,-0.84955 -0.65203,-1.38358 l -0.71035,-2.06213 -2.00912,0 z m -1.79022,-24.5481 c -13.797393,0 -25,11.20261 -25,25 0,13.79739 11.202607,25.00265 25,25.00265 13.79739,0 25,-11.20526 25,-25.00265 0,-13.79739 -11.20261,-25 -25,-25 z m 0,1.69635 c 12.88062,0 23.30365,10.42303 23.30365,23.30365 0,12.88062 -10.42303,23.3063 -23.30365,23.3063 -12.880616,0 -23.303647,-10.42568 -23.303647,-23.3063 0,-12.88062 10.423031,-23.30365 23.303647,-23.30365 z"
       inkscape:connector-curvature="0" />
  </g>
</svg>
